<?xml version="1.0" standalone="no"?><!DOCTYPE svg PUBLIC "-//W3C//DTD SVG 1.1//EN" "http://www.w3.org/Graphics/SVG/1.1/DTD/svg11.dtd"><svg t="1726244584261" class="icon" viewBox="0 0 1024 1024" version="1.1" xmlns="http://www.w3.org/2000/svg" p-id="13378" xmlns:xlink="http://www.w3.org/1999/xlink" width="200" height="200"><path d="M597.312 149.312H256a21.312 21.312 0 0 0-21.312 21.376v512c0 11.776 9.536 21.312 21.312 21.312h42.688v64H256a85.312 85.312 0 0 1-85.312-85.312v-512c0-47.168 38.208-85.312 85.312-85.312h341.312c47.168 0 85.376 38.144 85.376 85.312v42.624h-64v-42.624a21.312 21.312 0 0 0-21.376-21.312zM768 320H426.688a21.312 21.312 0 0 0-21.376 21.312v512c0 11.776 9.6 21.376 21.376 21.376H768c11.776 0 21.312-9.6 21.312-21.376v-512A21.312 21.312 0 0 0 768 320zM426.688 256c-47.168 0-85.376 38.208-85.376 85.312v512c0 47.168 38.208 85.376 85.376 85.376H768c47.104 0 85.312-38.208 85.312-85.376v-512C853.312 294.208 815.104 256 768 256H426.688zM480 469.312a32 32 0 0 1 32-32h170.688a32 32 0 0 1 0 64H512a32 32 0 0 1-32-32z m32 96a32 32 0 0 0 0 64h170.688a32 32 0 0 0 0-64H512z m-32 160a32 32 0 0 1 32-32h170.688a32 32 0 0 1 0 64H512a32 32 0 0 1-32-32z" fill="#999999" p-id="13379"></path></svg>